<svg xmlns="http://www.w3.org/2000/svg" viewBox="0 0 480 420"><rect width="480" height="420" rx="42" fill="#f3fbf8"/><circle cx="240" cy="142" r="76" fill="#dba57e"/><path d="M166 146c0-67 32-101 77-101 44 0 77 36 77 96-19-25-39-39-67-40-32-1-60 18-87 45z" fill="#5b4039"/><path d="M148 355c13-94 57-141 92-141 36 0 81 47 93 141" fill="#e9f7f2"/><path d="M196 270c30 18 57 18 88 0" fill="none" stroke="#c4e6da" stroke-width="22" stroke-linecap="round"/><circle cx="214" cy="145" r="6" fill="#3b3434"/><circle cx="267" cy="145" r="6" fill="#3b3434"/><path d="M222 177c11 9 24 9 36 0" fill="none" stroke="#9d5c53" stroke-width="6" stroke-linecap="round"/><circle cx="112" cy="106" r="22" fill="#d9f1e7"/><path d="M102 106h20M112 96v20" stroke="#138a5b" stroke-width="4" stroke-linecap="round"/></svg>
